# xmcd
#
# Track frame offsets:
#	182
#	16970
#	33330
#	46490
#	58805
#	78722
#	98055
#	122970
#	142372
#	154557
#	168410
#	181465
#	196592
#	210845
#	227695
#
# Disc length: 3304 seconds
#
# Revision: 1
# Processed by: cddbd v1.4PL0 Copyright (c) Steve Scherf et al.
# Submitted via: MusicWizard 6.0.1
#
DISCID=c80ce60f
DTITLE=Various Artist - That Loving Feeling Vol. VI Disc 2
DYEAR=1900
DGENRE=Pop
TTITLE0=Carpenters - Close to you (they long to be)
TTITLE1=Righteous Brothers - Unchained melody
TTITLE2=Marvin Gaye - Too busy thinking about my baby
TTITLE3=Smokey Robinson - I second that emotion
TTITLE4=Brenda Russell - Piano in the dark
TTITLE5=Jermaine Jackson - Do what you do
TTITLE6=Spandau Ballet - True
TTITLE7=Sade - Smooth Operator
TTITLE8=Harry Connick Jr. - We are in love
TTITLE9=Joan Armatrading - Warm love
TTITLE10=Everything But The Girl - Night and day
TTITLE11=Elvis Costello - Alison
TTITLE12=Mari Wilson - Cry me a river
TTITLE13=Joe Jackson - It´s different for girls
TTITLE14=Starship - Nothing´s gonna stop us now
EXTD=
EXTT0=
EXTT1=
EXTT2=
EXTT3=
EXTT4=
EXTT5=
EXTT6=
EXTT7=
EXTT8=
EXTT9=
EXTT10=
EXTT11=
EXTT12=
EXTT13=
EXTT14=
PLAYORDER=
